<svg xmlns="http://www.w3.org/2000/svg" style="display: none;">
  <!-- Facebook -->
  <symbol id="icon-facebook" viewBox="0 0 20 20">
    <path d="M12.2 2.9001C12.35 2.9001 12.5 2.9001 12.8 2.9001V5.1501C12.65 5.1501 12.35 5.1501 12.05 5.1501C11.75 5.1501 11.45 5.1501 11.3 5.3001C11.15 5.4501 11.15 5.6001 11.15 5.9501C11.15 6.2501 11.15 6.4501 11.15 6.7501H12.8V8.6501H11.15V16.9001H8.60001V8.6001H7.25V6.7001H8.60001V6.0501C8.60001 4.9501 8.75 4.1501 9.05 3.8001C9.5 3.1501 10.4 2.8501 11.75 2.8501C11.9 2.9001 12.05 2.9001 12.2 2.9001Z" fill="currentColor"/>
  </symbol>

  <!-- Instagram -->
  <symbol id="icon-instagram" viewBox="0 0 20 20">
    <path d="M17.9485 6.72248C17.9387 6.051 17.8143 5.38485 17.5762 4.75685C17.1595 3.68444 16.311 2.83646 15.2368 2.42133C14.6157 2.18805 13.9591 2.06298 13.2945 2.04879C12.4398 2.01064 12.1688 2 9.99911 2C7.82941 2 7.55131 2 6.7028 2.04879C6.03909 2.06298 5.3825 2.18805 4.76144 2.42133C3.68725 2.83646 2.83785 3.68444 2.42203 4.75685C2.18836 5.37687 2.06219 6.03238 2.04976 6.69498C2.01155 7.54917 2 7.81972 2 9.98581C2 12.1519 2 12.4287 2.04976 13.2766C2.06308 13.9401 2.18836 14.5947 2.42203 15.2165C2.83874 16.2881 3.68725 17.136 4.76233 17.5512C5.38072 17.7924 6.03732 17.929 6.70369 17.9503C7.55931 17.9885 7.8303 18 10 18C12.1697 18 12.4478 18 13.2963 17.9503C13.96 17.937 14.6166 17.812 15.2386 17.5787C16.3127 17.1627 17.1613 16.3147 17.578 15.2432C17.8116 14.6222 17.9369 13.9676 17.9502 13.3033C17.9884 12.4499 18 12.1794 18 10.0124C17.9982 7.84633 17.9982 7.57135 17.9485 6.72248ZM9.99378 14.0821C7.72457 14.0821 5.88627 12.2468 5.88627 9.98137C5.88627 7.71593 7.72457 5.8807 9.99378 5.8807C12.2612 5.8807 14.1013 7.71593 14.1013 9.98137C14.1013 12.2468 12.2612 14.0821 9.99378 14.0821ZM14.2648 6.68522C13.7343 6.68522 13.307 6.25768 13.307 5.72902C13.307 5.20036 13.7343 4.77281 14.2648 4.77281C14.7934 4.77281 15.2217 5.20036 15.2217 5.72902C15.2217 6.25768 14.7934 6.68522 14.2648 6.68522Z" fill="currentColor"/>
    <path d="M9.99469 12.485C11.3768 12.485 12.4972 11.3646 12.4972 9.98248C12.4972 8.60039 11.3768 7.47998 9.99469 7.47998C8.6126 7.47998 7.49219 8.60039 7.49219 9.98248C7.49219 11.3646 8.6126 12.485 9.99469 12.485Z" fill="currentColor"/>
  </symbol>

  <!-- YouTube -->
  <symbol id="icon-youtube" viewBox="0 0 20 20">
    <path d="M18.82 5.84762C18.82 5.84762 18.64 4.54762 18.1 3.99048C17.44 3.24762 16.66 3.24762 16.3 3.18571C13.78 3 10 3 10 3C10 3 6.22 3 3.7 3.18571C3.34 3.24762 2.56 3.24762 1.9 3.99048C1.36 4.54762 1.18 5.84762 1.18 5.84762C1.18 5.84762 1 7.33333 1 8.81905V10.181C1 11.6667 1.18 13.2143 1.18 13.2143C1.18 13.2143 1.36 14.5143 1.9 15.0714C2.56 15.8143 3.46 15.8143 3.88 15.8762C5.32 15.9381 10 16 10 16C10 16 13.78 16 16.3 15.8143C16.66 15.7524 17.44 15.7524 18.1 15.0095C18.64 14.4524 18.82 13.1524 18.82 13.1524C18.82 13.1524 19 11.6667 19 10.181V8.81905C19 7.33333 18.82 5.84762 18.82 5.84762ZM8.14 11.9143V6.71429L13 9.31429L8.14 11.9143Z" fill="currentColor"/>
  </symbol>

  <!-- Heart (outline) -->
  <symbol id="icon-heart" viewBox="0 0 18 18">
    <path d="M15.6296 3.4574C15.2465 3.07416 14.7917 2.77014 14.2911 2.56272C13.7905 2.3553 13.254 2.24854 12.7121 2.24854C12.1702 2.24854 11.6337 2.3553 11.1331 2.56272C10.6325 2.77014 10.1777 3.07416 9.7946 3.4574L8.9996 4.2524L8.2046 3.4574C7.43083 2.68364 6.38137 2.24894 5.2871 2.24894C4.19283 2.24894 3.14337 2.68364 2.3696 3.4574C1.59583 4.23117 1.16113 5.28063 1.16113 6.3749C1.16113 7.46918 1.59583 8.51864 2.3696 9.2924L3.1646 10.0874L8.9996 15.9224L14.8346 10.0874L15.6296 9.2924C16.0128 8.90934 16.3169 8.45451 16.5243 7.95392C16.7317 7.45333 16.8385 6.91677 16.8385 6.3749C16.8385 5.83304 16.7317 5.29648 16.5243 4.79589C16.3169 4.29529 16.0128 3.84047 15.6296 3.4574Z" stroke="currentColor" stroke-width="1.5" stroke-linecap="round" stroke-linejoin="round" fill="none"/>
  </symbol>

  <!-- Eye -->
  <symbol id="icon-eye" viewBox="0 0 20 20">
    <path d="M0.833008 10.0002C0.833008 10.0002 4.16634 3.3335 9.99968 3.3335C15.833 3.3335 19.1663 10.0002 19.1663 10.0002C19.1663 10.0002 15.833 16.6668 9.99968 16.6668C4.16634 16.6668 0.833008 10.0002 0.833008 10.0002Z" stroke="currentColor" stroke-width="1.8" stroke-linecap="round" stroke-linejoin="round" fill="none"/>
    <path d="M10 12.5C11.3807 12.5 12.5 11.3807 12.5 10C12.5 8.61929 11.3807 7.5 10 7.5C8.61929 7.5 7.5 8.61929 7.5 10C7.5 11.3807 8.61929 12.5 10 12.5Z" stroke="currentColor" stroke-width="1.8" stroke-linecap="round" stroke-linejoin="round" fill="none"/>
  </symbol>

  <!-- Eye Off -->
  <symbol id="icon-eye-off" viewBox="0 0 20 20">
    <path d="M14.9497 14.9502C13.5252 16.036 11.7906 16.6376 9.99968 16.6668C4.16634 16.6668 0.833008 10.0002 0.833008 10.0002C1.86958 8.06843 3.30729 6.38069 5.04967 5.05018M8.24968 3.53352C8.82329 3.39925 9.41056 3.33213 9.99968 3.33352C15.833 3.33352 19.1663 10.0002 19.1663 10.0002C18.6605 10.9465 18.0572 11.8375 17.3663 12.6585M11.7663 11.7668C11.5375 12.0125 11.2615 12.2095 10.9548 12.3461C10.6481 12.4828 10.3171 12.5562 9.98142 12.5622C9.64574 12.5681 9.31231 12.5063 9.00102 12.3806C8.68972 12.2549 8.40694 12.0677 8.16955 11.8303C7.93215 11.5929 7.745 11.3101 7.61927 10.9988C7.49353 10.6875 7.43178 10.3541 7.4377 10.0184C7.44363 9.68276 7.5171 9.35172 7.65374 9.04506C7.79038 8.73839 7.98739 8.46239 8.23301 8.23352" stroke="currentColor" stroke-width="1.8" stroke-linecap="round" stroke-linejoin="round" fill="none"/>
    <path d="M0.833008 0.833496L19.1663 19.1668" stroke="currentColor" stroke-width="1.8" stroke-linecap="round" stroke-linejoin="round" fill="none"/>
  </symbol>

  <!-- Arrow Up Right -->
  <symbol id="icon-arrow-up-right" viewBox="0 0 18 18">
    <path d="M5.25 12.75L12.75 5.25" stroke="currentColor" stroke-width="1.5" stroke-linecap="round" stroke-linejoin="round" fill="none"/>
    <path d="M5.25 5.25H12.75V12.75" stroke="currentColor" stroke-width="1.5" stroke-linecap="round" stroke-linejoin="round" fill="none"/>
  </symbol>

  <!-- Checkbox Default (unchecked) -->
  <symbol id="icon-checkbox-default" viewBox="0 0 19 19">
    <rect x="0.5" y="0.5" width="18" height="18" rx="6" stroke="currentColor" fill="none"/>
  </symbol>

  <!-- Checkbox Active (checked) -->
  <symbol id="icon-checkbox-active" viewBox="0 0 18 18">
    <rect width="18" height="18" rx="6" fill="currentColor"/>
    <path d="M5 10L8 12L13.5 6" stroke="white" stroke-width="2.01011" fill="none"/>
  </symbol>

  <!-- Trash -->
  <symbol id="icon-trash" viewBox="0 0 18 18">
    <path d="M6.75 2.25H11.25" stroke="currentColor" stroke-width="1.5" stroke-linecap="round" stroke-linejoin="round" fill="none"/>
    <path d="M2.25 4.5H15.75M14.25 4.5L13.724 12.3895C13.6451 13.5732 13.6057 14.165 13.35 14.6138C13.1249 15.0088 12.7854 15.3265 12.3762 15.5248C11.9115 15.75 11.3183 15.75 10.132 15.75H7.86799C6.68168 15.75 6.08852 15.75 5.62375 15.5248C5.21457 15.3265 4.87507 15.0088 4.64999 14.6138C4.39433 14.165 4.35488 13.5732 4.27596 12.3895L3.75 4.5" stroke="currentColor" stroke-width="1.5" stroke-linecap="round" stroke-linejoin="round" fill="none"/>
  </symbol>

  <!-- Plus -->
  <symbol id="icon-plus" viewBox="0 0 18 18">
    <path d="M9 3.75V14.25" stroke="currentColor" stroke-width="1.5" stroke-linecap="round" stroke-linejoin="round" fill="none"/>
    <path d="M3.75 9H14.25" stroke="currentColor" stroke-width="1.5" stroke-linecap="round" stroke-linejoin="round" fill="none"/>
  </symbol>
</svg>

